<svg xmlns="http://www.w3.org/2000/svg" viewBox="0 0 432.1 517.53"><defs><style>.cls-1{fill:#fff;opacity:0.15;}</style></defs><title>pattern</title><g id="Layer_2" data-name="Layer 2"><g id="Layer_2-2" data-name="Layer 2"><polygon class="cls-1" points="432.1 57.65 415.3 111.75 398.49 165.85 364.12 125.51 329.75 85.17 380.93 71.41 432.1 57.65"/><polygon class="cls-1" points="290.51 300.82 286 315.33 281.49 329.85 271.27 318.72 261.05 307.58 275.78 304.2 290.51 300.82"/><polygon class="cls-1" points="73.79 152.72 60.01 146.3 46.24 139.89 58.64 131.25 71.04 122.62 72.41 137.67 73.79 152.72"/><rect class="cls-1" x="63.49" y="197.85" width="27" height="23"/><rect class="cls-1" x="329.49" y="247.85" width="27" height="23"/><rect class="cls-1" x="116.49" y="49.85" width="15" height="15"/><rect class="cls-1" x="205.49" y="139.85" width="18" height="18"/><rect class="cls-1" x="181" y="19.17" width="84.61" height="48.51" transform="translate(59.98 -114.93) rotate(33.11)"/><ellipse class="cls-1" cx="119.24" cy="407.6" rx="99.25" ry="128.25" transform="translate(-281.61 267.35) rotate(-54.41)"/><circle class="cls-1" cx="376.99" cy="396.35" r="20.5"/><circle class="cls-1" cx="198.49" cy="220.85" r="10"/></g></g></svg>